<svg width="40" height="54" viewBox="0 0 40 54" fill="none" xmlns="http://www.w3.org/2000/svg">
<path d="M17.9314 12.248C14.9284 11.4042 12.7319 8.64929 12.7319 5.38565C12.7319 5.32361 12.7319 5.24915 12.7319 5.1871C8.15289 6.31635 3.99578 8.5252 0.546005 11.5282L6.10536 17.0876C9.49309 14.3079 13.5757 12.6327 17.9314 12.248Z" fill="#7BC242"/>
<path d="M21.7783 12.248C26.1339 12.6327 30.229 14.3079 33.5919 17.0876L39.1513 11.5282C35.7015 8.5252 31.5444 6.31635 26.9654 5.1871C26.9654 5.26156 26.9654 5.32361 26.9654 5.38565C26.9778 8.64929 24.7689 11.4042 21.7783 12.248Z" fill="#7BC242"/>
<path d="M19.8549 24.0244C18.7877 26.5062 17.2489 28.7895 15.2882 30.7626C11.28 34.7832 5.95646 37.0417 0.27301 37.1037C1.8614 46.4727 10.0267 53.6081 19.8424 53.6081C29.6582 53.6081 37.8235 46.4727 39.4119 37.1037C33.7408 37.0293 28.4173 34.7832 24.3966 30.7626C22.4608 28.7895 20.922 26.5062 19.8549 24.0244ZM15.735 39.4739C14.8539 40.4915 13.9232 41.0127 12.9553 41.0127C11.9874 41.0127 11.0567 40.4915 10.1756 39.4739C9.86538 39.114 9.90261 38.568 10.2625 38.2454C10.6223 37.9352 11.1808 37.9724 11.491 38.3322C12.0246 38.9527 12.521 39.2629 12.9553 39.2629C13.3896 39.2629 13.886 38.9527 14.4196 38.3322C14.7298 37.9724 15.2758 37.9227 15.6481 38.2454C16.008 38.568 16.0452 39.114 15.735 39.4739ZM25.2901 38.3447C25.8237 38.9651 26.3201 39.2754 26.7544 39.2754C27.1887 39.2754 27.6851 38.9651 28.2187 38.3447C28.5289 37.9848 29.0749 37.9352 29.4472 38.2578C29.8071 38.568 29.8567 39.114 29.5341 39.4863C28.653 40.5039 27.7223 41.0251 26.7544 41.0251C25.7865 41.0251 24.8558 40.5039 23.9747 39.4863C23.6645 39.1264 23.7017 38.5804 24.0616 38.2578C24.4339 37.9352 24.9799 37.9848 25.2901 38.3447Z" fill="#7BC242"/>
<path d="M19.8548 10.7713C22.8331 10.7713 25.2405 8.36385 25.2405 5.38563C25.2405 5.18708 25.2281 4.98853 25.2032 4.80239C24.9178 2.09717 22.6345 0 19.8548 0C17.0752 0 14.7919 2.09717 14.5064 4.80239C14.4816 5.00094 14.4692 5.18708 14.4692 5.38563C14.4692 8.36385 16.8766 10.7713 19.8548 10.7713ZM17.4971 4.51698H18.9862V3.02786C18.9862 2.5439 19.3709 2.15921 19.8548 2.15921C20.3388 2.15921 20.7235 2.5439 20.7235 3.02786V4.50457H22.2126C22.6966 4.50457 23.0813 4.88926 23.0813 5.37322C23.0813 5.85718 22.6966 6.24187 22.2126 6.24187H20.7235V7.73098C20.7235 8.21494 20.3388 8.59963 19.8548 8.59963C19.3709 8.59963 18.9862 8.21494 18.9862 7.73098V6.24187H17.4971C17.0131 6.24187 16.6284 5.85718 16.6284 5.37322C16.6284 4.90167 17.0255 4.51698 17.4971 4.51698Z" fill="#7BC242"/>
<path d="M20.8476 13.9232C20.5374 13.9108 20.2271 13.8983 19.9169 13.8983H19.4826C8.6865 14.0969 0 22.9075 0 33.7532C0 34.2992 0.0248186 34.8328 0.0620464 35.3664C10.9326 35.3292 19.7432 26.5682 19.8548 15.7101C19.9665 26.5682 28.7771 35.3292 39.6476 35.3664C39.6849 34.8328 39.7097 34.2992 39.7097 33.7532C39.7097 23.1184 31.3458 14.4444 20.8476 13.9232ZM12.2728 21.2943L7.2222 26.3449C7.04847 26.5186 6.8251 26.6054 6.61415 26.6054C6.40319 26.6054 6.16741 26.5186 6.00609 26.3449C5.67104 26.0098 5.67104 25.4514 6.00609 25.1163L11.0567 20.0658C11.3917 19.7307 11.9501 19.7307 12.2852 20.0658C12.6202 20.4132 12.6202 20.9592 12.2728 21.2943ZM14.3451 19.1847L14.3079 19.2219C14.1342 19.3957 13.9108 19.4701 13.6998 19.4701C13.4765 19.4701 13.2531 19.3832 13.0794 19.2095C12.7443 18.8745 12.7443 18.316 13.0794 17.981L13.1166 17.9438C13.4517 17.6087 14.0101 17.6087 14.3451 17.9438C14.6926 18.3036 14.6926 18.8496 14.3451 19.1847Z" fill="#7BC242"/>
</svg>
