<svg width="51" height="51" viewBox="0 0 51 51" fill="none" xmlns="http://www.w3.org/2000/svg">
<path d="M38.25 16.15V0H12.75V16.15H0V51H22.1V40.8H19.55V39.1H31.45V40.8H28.9V51H51V16.15H38.25ZM9.35 41.65H4.25V36.55H9.35V41.65ZM9.35 33.15H4.25V28.05H9.35V33.15ZM9.35 24.65H4.25V19.55H9.35V24.65ZM19.55 34.85H16.15V31.45H19.55V34.85ZM19.55 28.05H16.15V24.65H19.55V28.05ZM19.55 21.25H16.15V17.85H19.55V21.25ZM31.45 17.85H34.85V21.25H31.45V17.85ZM31.45 24.65H34.85V28.05H31.45V24.65ZM27.2 34.85H23.8V31.45H27.2V34.85ZM27.2 28.05H23.8V24.65H27.2V28.05ZM27.2 21.25H23.8V17.85H27.2V21.25ZM30.6 11.05H27.2V14.45H23.8V11.05H20.4V7.65H23.8V4.25H27.2V7.65H30.6V11.05ZM31.45 34.85V31.45H34.85V34.85H31.45ZM35.7 47.6H34V45.9H35.7V47.6ZM35.7 44.2H34V42.5H35.7V44.2ZM35.7 40.8H34V39.1H35.7V40.8ZM46.75 41.65H41.65V36.55H46.75V41.65ZM46.75 33.15H41.65V28.05H46.75V33.15ZM46.75 24.65H41.65V19.55H46.75V24.65Z" fill="#7BC242"/>
</svg>
