<svg width="54" height="54" viewBox="0 0 54 54" fill="none" xmlns="http://www.w3.org/2000/svg">
<path d="M15.3856 6.91636C15.3856 5.89849 16.2208 5.06331 17.2387 5.06331H36.1085C37.1264 5.06331 37.9615 5.89849 37.9615 6.91636V14.0154H43.0248V6.91636C43.0248 3.10585 39.919 3.05176e-05 36.1085 3.05176e-05H17.2387C13.4282 3.05176e-05 10.3223 3.10585 10.3223 6.91636V14.0154H15.3856V6.91636Z" fill="#7BC242"/>
<path d="M2.89704 30.3797C2.77959 30.3797 2.64909 30.3797 2.53165 30.3666V50.3457C2.53165 52.1465 4.24115 53.6081 6.34215 53.6081H47.018C49.119 53.6081 50.8285 52.1465 50.8285 50.3457V30.3536C50.7111 30.3666 50.5936 30.3666 50.4631 30.3666H2.89704V30.3797ZM34.673 45.5043H30.197V49.9803H23.1501V45.5043H18.6741V38.4574H23.1501V33.9814H30.197V38.4574H34.673V45.5043Z" fill="#7BC242"/>
<path d="M46.0915 19.7051H53.3601V18.7524C53.3601 17.1473 52.0552 15.8554 50.4631 15.8554H2.89703C1.29192 15.8554 0 17.1604 0 18.7524V25.6427C0 27.2478 1.30497 28.5527 2.89703 28.5527H50.4631C52.0682 28.5527 53.3601 27.2478 53.3601 25.6427V21.532H46.0915C45.5825 21.532 45.178 21.1275 45.178 20.6185C45.178 20.1096 45.5825 19.7051 46.0915 19.7051ZM43.8861 21.258C43.7164 21.4276 43.4815 21.519 43.2466 21.519C42.9987 21.519 42.7769 21.4146 42.5942 21.258C42.4245 21.0883 42.3332 20.8534 42.3332 20.6055C42.3332 20.3575 42.4376 20.1357 42.5942 19.953C42.7638 19.7834 42.9987 19.692 43.2466 19.692C43.4946 19.692 43.7164 19.7834 43.8861 19.953C44.0557 20.1227 44.1601 20.3575 44.1601 20.6055C44.1601 20.8534 44.0557 21.0883 43.8861 21.258Z" fill="#7BC242"/>
</svg>
