<svg width="57" height="57" viewBox="0 0 57 57" fill="none" xmlns="http://www.w3.org/2000/svg">
<path d="M50.6461 39.329H47.9964C48.2045 39.2041 48.3987 39.0654 48.5791 38.9128C50.1606 37.6504 51.1733 35.7082 51.1733 33.5163C51.1733 31.8239 50.5629 30.2701 49.5502 29.0632C48.2877 27.5649 46.4011 26.6077 44.2785 26.6077C40.4636 26.6077 37.3838 29.7013 37.3838 33.5024C37.3838 35.944 38.6462 38.0804 40.5607 39.3151H37.911C34.7619 39.3151 32.2232 41.8677 32.2232 45.0029V56.4201H36.8151V49.3034C36.8151 48.7624 37.2451 48.3323 37.7861 48.3323C38.3272 48.3323 38.7572 48.7624 38.7572 49.3034V56.4339H49.8137V49.3034C49.8137 48.7624 50.2438 48.3323 50.7848 48.3323C51.3259 48.3323 51.7559 48.7624 51.7559 49.3034V56.4339H56.3339V45.0168C56.3339 41.8677 53.7952 39.329 50.6461 39.329Z" fill="#7BC242"/>
<path d="M36.3712 37.4978C35.7469 36.277 35.4139 34.9036 35.4139 33.4747C35.4139 28.6054 39.3815 24.6379 44.2508 24.6379C46.2762 24.6379 48.2184 25.3315 49.7583 26.5662L50.9791 14.164C51.0762 13.2068 50.3132 12.3744 49.356 12.3744H40.9353C40.1584 12.3744 39.4925 12.9155 39.3399 13.6784L38.3549 18.5478C38.2024 19.3108 37.5365 19.8518 36.7596 19.8518H1.63401C0.649056 19.8518 -0.100067 20.7119 0.010914 21.683L3.38197 49.2341C3.47908 50.0526 4.17271 50.663 4.9912 50.663H30.2256V44.9752C30.2394 41.285 32.8753 38.2053 36.3712 37.4978ZM27.1181 38.6354H22.6788V43.0746H15.687V38.6354H11.2478V31.6574H15.687V27.2182H22.6788V31.6574H27.1181V38.6354Z" fill="#7BC242"/>
<path d="M37.4255 13.3039C37.7584 11.6392 39.2289 10.4322 40.9214 10.4322H45.6797V0H5.37964V10.6265H14.9518C15.4928 10.6265 15.9229 11.0565 15.9229 11.5975C15.9229 12.1386 15.4928 12.5686 14.9518 12.5686H5.37964V17.9235H36.496L37.4255 13.3039ZM20.8338 11.7918C20.8199 11.8473 20.806 11.9166 20.7783 11.9721C20.7505 12.0276 20.7228 12.0831 20.6951 12.1386C20.6534 12.1941 20.6257 12.2357 20.5702 12.2912C20.5286 12.3328 20.4731 12.3744 20.4176 12.416C20.3621 12.4577 20.3066 12.4854 20.2511 12.4993C20.1956 12.527 20.1263 12.5409 20.0708 12.5548C20.0153 12.5686 19.9459 12.5686 19.8766 12.5686C19.6269 12.5686 19.3772 12.4577 19.1968 12.2773C19.0165 12.097 18.9055 11.8473 18.9055 11.5975C18.9055 11.3478 19.0165 11.0981 19.1968 10.9039C19.2384 10.8623 19.2939 10.8207 19.3494 10.7791C19.4049 10.7374 19.4604 10.7097 19.5159 10.6958C19.5714 10.6681 19.6407 10.6542 19.6962 10.6403C19.8211 10.6126 19.9459 10.6126 20.0708 10.6403C20.1263 10.6542 20.1956 10.6681 20.2511 10.6958C20.3066 10.7236 20.3621 10.7513 20.4176 10.7791C20.4731 10.8207 20.5286 10.8484 20.5702 10.9039C20.7505 11.0843 20.8477 11.334 20.8477 11.5975C20.8477 11.653 20.8477 11.7224 20.8338 11.7918Z" fill="#7BC242"/>
</svg>
