<svg width="17" height="17" viewBox="0 0 17 17" fill="none" xmlns="http://www.w3.org/2000/svg">
<path d="M17 15.9685L11.9841 10.9482C12.9049 9.79713 13.4583 8.33177 13.4583 6.73802C13.4583 3.01484 10.4435 0 6.72917 0C3.01042 0 0 3.01927 0 6.73802C0 10.4568 3.01484 13.476 6.72917 13.476C8.33177 13.476 9.80156 12.9138 10.957 11.9797L15.9685 17L17 15.9685ZM2.47031 11.0057C1.33255 9.86797 0.708333 8.35391 0.708333 6.74245C0.708333 5.13099 1.33698 3.61693 2.47031 2.47917C3.60365 1.34141 5.12214 0.708333 6.72917 0.708333C8.3362 0.708333 9.85026 1.33698 10.988 2.47474C12.1258 3.6125 12.75 5.12656 12.75 6.73802C12.75 8.34948 12.1214 9.86354 10.988 11.0013C9.85026 12.1391 8.3362 12.7677 6.72917 12.7677C5.12214 12.7721 3.60807 12.1435 2.47031 11.0057Z" fill="#8C8C8C"/>
</svg>
