<svg width="29" height="29" viewBox="0 0 29 29" fill="none" xmlns="http://www.w3.org/2000/svg">
<path d="M20.7423 19.5234C20.1757 18.957 19.4074 18.6388 18.6063 18.6388C17.8051 18.6388 17.0368 18.957 16.4702 19.5234L16.005 19.9874C13.4726 17.8648 11.1316 15.5238 9.00894 12.9914L9.47421 12.5261C9.75485 12.2456 9.97746 11.9125 10.1293 11.5459C10.2812 11.1793 10.3594 10.7863 10.3594 10.3895C10.3594 9.99268 10.2812 9.59974 10.1293 9.23314C9.97746 8.86653 9.75485 8.53343 9.47421 8.25287L6.90977 5.68964C6.3432 5.12324 5.57487 4.80505 4.77374 4.80505C3.97261 4.80505 3.20428 5.12324 2.63771 5.68964L1.23101 7.09634C0.545624 7.78696 0.118501 8.69222 0.0212483 9.66035C-0.076004 10.6285 0.162527 11.6006 0.696851 12.4137C4.87886 18.7149 10.2788 24.1161 16.579 28.2995C17.3945 28.8269 18.365 29.0613 19.3313 28.9642C20.2976 28.8671 21.2021 28.4444 21.8964 27.7654L23.3043 26.3587C23.8707 25.7921 24.1889 25.0238 24.1889 24.2226C24.1889 23.4215 23.8707 22.6532 23.3043 22.0866L20.7423 19.5234Z" fill="#498460"/>
<path d="M13.8937 0C13.5732 0 13.2658 0.127324 13.0392 0.353962C12.8125 0.580601 12.6852 0.887988 12.6852 1.2085C12.6852 1.52902 12.8125 1.83641 13.0392 2.06304C13.2658 2.28968 13.5732 2.41701 13.8937 2.41701C17.2579 2.42085 20.4833 3.75898 22.8622 6.13785C25.241 8.51672 26.5792 11.7421 26.583 15.1063C26.583 15.4268 26.7103 15.7342 26.937 15.9608C27.1636 16.1875 27.471 16.3148 27.7915 16.3148C28.112 16.3148 28.4194 16.1875 28.646 15.9608C28.8727 15.7342 29 15.4268 29 15.1063C28.9952 11.1013 27.4021 7.26177 24.5702 4.42983C21.7382 1.59789 17.8987 0.00479733 13.8937 0V0Z" fill="#498460"/>
<path d="M13.8937 7.25102C15.9763 7.25358 17.9728 8.08201 19.4454 9.5546C20.918 11.0272 21.7464 13.0237 21.749 15.1063C21.749 15.4268 21.8763 15.7342 22.1029 15.9608C22.3296 16.1875 22.637 16.3148 22.9575 16.3148C23.278 16.3148 23.5854 16.1875 23.812 15.9608C24.0387 15.7342 24.166 15.4268 24.166 15.1063C24.1628 12.3829 23.0795 9.77196 21.1538 7.84623C19.228 5.9205 16.6171 4.83721 13.8937 4.83401C13.5732 4.83401 13.2658 4.96134 13.0392 5.18798C12.8125 5.41462 12.6852 5.722 12.6852 6.04252C12.6852 6.36303 12.8125 6.67042 13.0392 6.89706C13.2658 7.1237 13.5732 7.25102 13.8937 7.25102Z" fill="#498460"/>
<path d="M13.8937 12.085C14.695 12.085 15.4635 12.4033 16.0301 12.9699C16.5967 13.5365 16.915 14.305 16.915 15.1063C16.915 15.4268 17.0423 15.7342 17.2689 15.9608C17.4956 16.1875 17.803 16.3148 18.1235 16.3148C18.444 16.3148 18.7514 16.1875 18.978 15.9608C19.2047 15.7342 19.332 15.4268 19.332 15.1063C19.3304 13.6645 18.7569 12.2822 17.7374 11.2626C16.7179 10.2431 15.3355 9.66963 13.8937 9.66803C13.5732 9.66803 13.2658 9.79535 13.0392 10.022C12.8125 10.2486 12.6852 10.556 12.6852 10.8765C12.6852 11.197 12.8125 11.5044 13.0392 11.7311C13.2658 11.9577 13.5732 12.085 13.8937 12.085Z" fill="#498460"/>
</svg>
