<svg width="18" height="22" viewBox="0 0 18 22" fill="none" xmlns="http://www.w3.org/2000/svg">
<path d="M15.3327 10.7836C15.2564 10.7078 15.166 10.6479 15.0665 10.6071C14.967 10.5663 14.8605 10.5455 14.753 10.5459C14.6455 10.5462 14.5391 10.5678 14.4399 10.6093C14.3408 10.6508 14.2507 10.7114 14.175 10.7877C14.0992 10.864 14.0393 10.9544 13.9985 11.0539C13.9577 11.1534 13.9369 11.2599 13.9373 11.3674C13.9376 11.4749 13.9592 11.5813 14.0007 11.6804C14.0422 11.7796 14.1028 11.8696 14.1791 11.9454C14.8714 12.6304 15.4209 13.4459 15.7959 14.3447C16.1709 15.2435 16.3639 16.2078 16.3636 17.1817C16.3636 18.1799 13.4918 19.6363 9.00001 19.6363C4.50821 19.6363 1.63641 18.1799 1.63641 17.1817C1.63511 16.2142 1.82448 15.256 2.1937 14.3617C2.56292 13.4675 3.10475 12.6547 3.78822 11.9699C3.9406 11.8166 4.02614 11.6093 4.02614 11.3931C4.02614 11.177 3.9406 10.9696 3.78822 10.8163C3.63492 10.6639 3.42755 10.5784 3.2114 10.5784C2.99525 10.5784 2.78788 10.6639 2.63458 10.8163C1.79604 11.6502 1.13137 12.6422 0.679131 13.7349C0.226888 14.8276 -0.00393308 15.9992 5.07007e-05 17.1817C5.07007e-05 19.8408 4.63912 21.2726 9.00001 21.2726C13.3609 21.2726 18 19.8408 18 17.1817C18.0031 15.9915 17.7688 14.8126 17.3108 13.714C16.8529 12.6154 16.1804 11.6191 15.3327 10.7836Z" fill="white"/>
<path d="M9.00001 11.4545C10.1328 11.4545 11.2401 11.1186 12.1819 10.4893C13.1237 9.85996 13.8578 8.96549 14.2913 7.91897C14.7248 6.87245 14.8382 5.7209 14.6172 4.60992C14.3962 3.49894 13.8508 2.47844 13.0498 1.67747C12.2488 0.876504 11.2283 0.331037 10.1173 0.11005C9.00637 -0.110937 7.85481 0.00248152 6.80829 0.435963C5.76177 0.869445 4.8673 1.60352 4.23798 2.54536C3.60866 3.4872 3.27277 4.59451 3.27277 5.72725C3.27277 7.24621 3.87617 8.70296 4.95024 9.77702C6.02431 10.8511 7.48105 11.4545 9.00001 11.4545ZM9.00001 1.63636C9.80911 1.63636 10.6 1.87629 11.2728 2.3258C11.9455 2.77531 12.4699 3.41422 12.7795 4.16173C13.0891 4.90925 13.1701 5.73179 13.0123 6.52534C12.8545 7.3189 12.4648 8.04782 11.8927 8.61995C11.3206 9.19207 10.5917 9.58169 9.79811 9.73953C9.00455 9.89738 8.18201 9.81637 7.4345 9.50674C6.68698 9.19711 6.04807 8.67277 5.59856 8.00003C5.14905 7.32728 4.90912 6.53635 4.90912 5.72725C4.90912 4.64228 5.34013 3.60174 6.10732 2.83455C6.87451 2.06736 7.91504 1.63636 9.00001 1.63636Z" fill="white"/>
</svg>
